#!OML:ASF F:\VICON\USERDATA\INSTALL\rory3\rory3.ASF
:FULLY-SPECIFIED
:DEGREES
535
root 7.61489 17.3691 3.76001 13.153 48.2129 7.54621
lowerback 8.97034 0.951415 -6.644
upperback 2.03223 0.732787 1.6408
thorax -3.01457 0.428671 5.37962
lowerneck 8.10089 -16.711 -22.826
upperneck -14.2673 -22.7366 32.4219
head 1.53915 -12.3018 13.0292
rclavicle 4.29375e-014 1.43125e-014
rhumerus -41.9692 -29.8757 -60.837
rradius 24.2824
rwrist -6.14755
rhand -11.5695 18.7677
rfingers 7.12502
rthumb 14.4718 -10.7077
lclavicle 4.29375e-014 1.43125e-014
lhumerus -53.2373 41.1623 50.0765
lradius 22.7266
lwrist -7.27007
lhand -4.12351 34.8779
lfingers 7.12502
lthumb 21.6354 63.6892
rfemur -38.6224 -7.432 10.2087
rtibia 37.6095
rfoot -5.83 -13.2065
rtoes 28.289
lfemur -5.43666 -9.96113 -22.3942
ltibia 27.8816
lfoot -15.4471 -34.1917
ltoes 32.4601
536
root 7.62426 17.36 3.80873 12.9449 48.234 7.37543
lowerback 9.20826 0.659422 -6.56195
upperback 2.06725 0.343044 1.74918
thorax -3.05452 0.235652 5.49367
lowerneck 7.62472 -16.5887 -22.7869
upperneck -13.8018 -22.5612 32.2497
head 1.66468 -12.1617 12.9299
rclavicle 1.80894e-014 -1.03368e-014
rhumerus -41.2944 -29.3177 -61.3492
rradius 24.9098
rwrist -6.76936
rhand -11.6941 18.7914
rfingers 7.12502
rthumb 14.3518 -10.6925
lclavicle 1.80894e-014 -1.03368e-014
lhumerus -52.3248 41.0888 50.0766
lradius 22.716
lwrist -7.7122
lhand -6.07613 36.2838
lfingers 7.12502
lthumb 19.7592 65.2995
rfemur -38.5789 -7.85336 10.6284
rtibia 37.8954
rfoot -5.45322 -12.7592
rtoes 27.5403
lfemur -5.17832 -10.0536 -22.2787
ltibia 27.9626
lfoot -16.6056 -33.6723
ltoes 29.8132
537
root 7.60803 17.3401 3.84313 13.0592 47.4386 7.17783
lowerback 9.37927 0.671005 -6.75579
upperback 1.96687 0.325792 1.78541
thorax -3.25302 0.238455 5.64592
lowerneck 7.21236 -16.5122 -22.614
upperneck -13.636 -22.3886 32.1181
head 1.68928 -12.0417 12.8463
rclavicle 1.98785e-014 5.56597e-015
rhumerus -40.6134 -29.3168 -61.7452
rradius 25.2128
rwrist -6.78637
rhand -12.0087 19.2548
rfingers 7.12502
rthumb 14.0486 -10.2504
lclavicle 1.98785e-014 5.56597e-015
lhumerus -50.9068 40.4986 50.6982
lradius 22.6748
lwrist -6.72604
lhand -6.64049 36.8602
lfingers 7.12502
lthumb 19.2166 65.9308
rfemur -39.2501 -6.85504 10.8119
rtibia 38.207
rfoot -5.05351 -13.1361
rtoes 28.9275
lfemur -5.28281 -10.1065 -22.2139
ltibia 27.9788
lfoot -16.4341 -32.9541
ltoes 29.8043
538
root 7.6465 17.3335 3.92413 12.5484 47.4112 6.72387
lowerback 9.27865 0.480425 -6.41019
upperback 2.01455 0.116285 1.8306
thorax -3.1164 0.125346 5.52073
lowerneck 7.52063 -16.3123 -22.4558
upperneck -13.7466 -22.1156 32.2496
head 1.53746 -11.9469 12.9736
rclavicle -7.67309e-014 -2.38542e-015
rhumerus -40.4891 -29.7894 -61.9051
rradius 25.6281
rwrist -6.23542
rhand -12.4013 19.3373
rfingers 7.12502
rthumb 13.6702 -10.1938
lclavicle -7.67309e-014 -2.38542e-015
lhumerus -49.3839 39.4318 51.4562
lradius 22.575
lwrist -5.99161
lhand -3.50442 35.4658
lfingers 7.12502
lthumb 22.2298 64.2075
rfemur -39.0028 -7.31452 11.4236
rtibia 38.521
rfoot -4.90118 -12.4157
rtoes 27.6244
lfemur -4.66174 -10.3429 -21.8939
ltibia 27.9242
lfoot -14.9533 -33.2617
ltoes 33.4079
539
root 7.66089 17.3343 4.00217 12.4071 47.02 6.38756
lowerback 9.18765 0.399307 -6.13505
upperback 1.87681 0.028765 1.65183
thorax -3.19834 0.0845559 5.18491
lowerneck 7.59561 -16.1584 -22.1492
upperneck -13.4189 -21.9291 32.2658
head 1.52894 -11.8652 12.9749
rclavicle 8.42847e-014 -1.43125e-014
rhumerus -40.41 -29.8793 -62.412
rradius 26.2795
rwrist -6.50315
rhand -12.3062 18.827
rfingers 7.12502
rthumb 13.7619 -10.6979
lclavicle 8.42847e-014 -1.43125e-014
lhumerus -48.1309 38.4195 51.523
lradius 22.4024
lwrist -7.38526
lhand -3.15629 35.3086
lfingers 7.12502
lthumb 22.564 64.01
rfemur -39.1995 -7.04589 11.9
rtibia 38.8223
rfoot -4.85414 -12.047
rtoes 25.163
lfemur -4.62561 -9.98657 -21.6544
ltibia 27.8383
lfoot -14.5842 -33.0052
ltoes 33.909
540
root 7.67108 17.3374 4.07038 12.1633 46.6853 5.91192
lowerback 9.31758 0.208376 -5.48831
upperback 1.73386 -0.184395 1.38155
thorax -3.39581 -0.0192156 4.55897
lowerneck 6.92254 -16.1463 -21.7617
upperneck -12.6108 -21.9036 32.0733
head 1.77662 -11.784 12.7506
rclavicle -3.1408e-014 3.10104e-014
rhumerus -39.9852 -29.5601 -63.2744
rradius 26.8084
rwrist -7.48128
rhand -11.9478 18.5679
rfingers 7.12502
rthumb 14.1073 -10.9332
lclavicle -3.1408e-014 3.10104e-014
lhumerus -46.8421 37.2982 51.4829
lradius 22.3002
lwrist -8.27256
lhand -2.64231 35.124
lfingers 7.12502
lthumb 23.0572 63.7646
rfemur -39.4125 -6.85758 12.4916
rtibia 39.1092
rfoot -4.963 -11.9802
rtoes 27.307
lfemur -4.54983 -9.67441 -21.3023
ltibia 27.7163
lfoot -14.5916 -32.5973
ltoes 33.3607
541
root 7.68153 17.3299 4.14251 11.8115 46.3198 5.41729
lowerback 9.39587 0.0820187 -5.4372
upperback 1.74737 -0.34244 1.59471
thorax -3.40519 -0.0971946 4.77417
lowerneck 6.07395 -16.1974 -21.7496
upperneck -11.9916 -21.9533 31.7184
head 2.04229 -11.7105 12.4976
rclavicle -6.59965e-014 2.3059e-014
rhumerus -39.1674 -28.7436 -63.8251
rradius 27.3959
rwrist -8.34079
rhand -11.8881 18.4739
rfingers 7.12502
rthumb 14.1648 -11.0232
lclavicle -6.59965e-014 2.3059e-014
lhumerus -45.7634 36.8968 51.803
lradius 22.2314
lwrist -8.42712
lhand -2.74715 35.2923
lfingers 7.12502
lthumb 22.9566 63.9455
rfemur -39.5389 -6.53083 13.0227
rtibia 39.4063
rfoot -5.10084 -11.9266
rtoes 29.7203
lfemur -4.26383 -9.63587 -20.9458
ltibia 27.6719
lfoot -13.6272 -32.5245
ltoes 35.4108
542
root 7.69195 17.3255 4.22054 11.591 45.8194 5.12982
lowerback 9.21266 0.124408 -6.07313
upperback 1.88694 -0.312455 2.15988
thorax -3.15243 -0.0856676 5.72772
lowerneck 5.58394 -16.2664 -21.9933
upperneck -11.8087 -22.0285 31.2255
head 2.14188 -11.6766 12.2875
rclavicle -1.0138e-014 1.43125e-014
rhumerus -38.203 -27.6537 -63.9127
rradius 28.0119
rwrist -9.10801
rhand -11.9639 18.202
rfingers 7.12502
rthumb 14.0918 -11.3002
lclavicle -1.0138e-014 1.43125e-014
lhumerus -45.0043 37.5066 52.087
lradius 22.0104
lwrist -9.68203
lhand -3.34392 35.5338
lfingers 7.12502
lthumb 22.3839 64.257
rfemur -39.6191 -5.98096 13.3659
rtibia 39.7075
rfoot -5.08473 -11.7798
rtoes 29.1232
lfemur -3.95467 -9.27715 -20.772
ltibia 27.5917
lfoot -13.3468 -32.3033
ltoes 35.6034
543
root 7.70807 17.3295 4.29546 11.5463 45.3745 5.09574
lowerback 9.09502 0.143276 -6.48094
upperback 1.92867 -0.308438 2.42807
thorax -3.03878 -0.0847736 6.24441
lowerneck 5.35453 -16.1858 -22.2413
upperneck -11.5818 -21.9414 31.0236
head 2.21685 -11.5944 12.2408
rclavicle -4.77083e-015 -9.54166e-015
rhumerus -37.6228 -27.0549 -63.953
rradius 28.6541
rwrist -9.66065
rhand -12.0615 18.0744
rfingers 7.12502
rthumb 13.9978 -11.4343
lclavicle -4.77083e-015 -9.54166e-015
lhumerus -44.1163 37.6306 52.3026
lradius 21.8959
lwrist -10.7861
lhand -3.56275 35.6056
lfingers 7.12502
lthumb 22.1738 64.3539
rfemur -39.6541 -5.69065 13.5511
rtibia 40.0111
rfoot -5.19945 -11.4889
rtoes 28.3581
lfemur -3.49875 -9.22169 -20.8057
ltibia 27.4505
lfoot -14.5434 -31.3641
ltoes 32.7869
544
root 7.72721 17.336 4.36519 11.4593 45.1023 5.00787
lowerback 9.1393 0.0111662 -6.42397
upperback 1.89181 -0.482583 2.4212
thorax -3.07557 -0.169635 6.22532
lowerneck 5.15263 -15.9859 -22.3245
upperneck -11.2435 -21.6947 31.1433
head 2.31049 -11.4519 12.3147
rclavicle -3.57812e-015 3.10104e-014
rhumerus -37.1639 -26.7153 -64.3249
rradius 29.276
rwrist -10.0141
rhand -12.236 18.2253
rfingers 7.12502
rthumb 13.8296 -11.295
lclavicle -3.57812e-015 3.10104e-014
lhumerus -42.9717 36.8679 52.644
lradius 22.0519
lwrist -10.7928
lhand -3.53572 35.9656
lfingers 7.12502
lthumb 22.1997 64.7108
rfemur -39.6294 -5.61929 13.7921
rtibia 40.2968
rfoot -5.54594 -11.2423
rtoes 27.8592
lfemur -3.03585 -9.55774 -20.7989
ltibia 27.3364
lfoot -15.4169 -30.2568
ltoes 30.5494
